<svg width="432" height="810" viewBox="0 0 432 810" fill="none" xmlns="http://www.w3.org/2000/svg">
<path d="M-39.624 179.679C-21.1894 179.679 2.09638 201.892 30.7185 245.823C107.853 339.608 154.425 398.841 170.919 423.028H173.344C186.443 409.7 248.053 332.204 358.66 191.032C363.997 186.096 373.699 182.147 387.768 179.679C416.39 186.59 430.943 199.917 430.943 218.674V232.495C430.943 241.874 403.777 278.894 349.928 343.063L230.103 497.069C363.997 660.946 431.429 746.834 431.429 754.238V768.059C431.429 790.765 416.875 804.586 388.253 809.522H386.312C368.848 809.522 348.958 791.752 327.128 756.706L173.829 565.68C53.0341 718.699 -10.0316 797.676 -16.3381 802.118C-23.6149 806.561 -31.3769 809.029 -39.1389 809.029H-41.0793C-65.3354 809.029 -79.4039 792.74 -84.2551 760.655C-84.2551 748.809 -55.633 709.32 1.61127 643.67L116.585 494.107L-80.3742 243.848L-84.7402 225.091C-78.4337 194.488 -63.395 179.679 -39.624 179.679Z" fill="url(#paint0_linear_1221_1961)"/>
<path d="M261.633 88.8569C261.633 137.724 222.824 177.213 174.796 177.213C126.769 177.213 87.9595 137.724 87.9595 88.8569C87.9595 39.9898 126.769 0.501221 174.796 0.501221C222.824 0.501221 261.633 39.9898 261.633 88.8569Z" fill="url(#paint1_linear_1221_1961)"/>
<defs>
<linearGradient id="paint0_linear_1221_1961" x1="307.041" y1="686.659" x2="293.515" y2="322.816" gradientUnits="userSpaceOnUse">
<stop stop-color="#E5E5E5" stop-opacity="0.68"/>
<stop offset="1" stop-color="white"/>
</linearGradient>
<linearGradient id="paint1_linear_1221_1961" x1="219.781" y1="142.742" x2="216.615" y2="40.6173" gradientUnits="userSpaceOnUse">
<stop stop-color="#E5E5E5" stop-opacity="0.68"/>
<stop offset="1" stop-color="white"/>
</linearGradient>
</defs>
</svg>
