<svg width="14" height="14" viewBox="0 0 14 14" fill="none" xmlns="http://www.w3.org/2000/svg">
<path d="M3.66683 3.33329V1.33329C3.66683 1.15648 3.73707 0.986912 3.86209 0.861888C3.98712 0.736864 4.15669 0.666626 4.3335 0.666626H9.66683C9.84364 0.666626 10.0132 0.736864 10.1382 0.861888C10.2633 0.986912 10.3335 1.15648 10.3335 1.33329V3.33329H13.0002C13.177 3.33329 13.3465 3.40353 13.4716 3.52855C13.5966 3.65358 13.6668 3.82315 13.6668 3.99996V13.3333C13.6668 13.5101 13.5966 13.6797 13.4716 13.8047C13.3465 13.9297 13.177 14 13.0002 14H1.00016C0.823352 14 0.653782 13.9297 0.528758 13.8047C0.403734 13.6797 0.333496 13.5101 0.333496 13.3333V3.99996C0.333496 3.82315 0.403734 3.65358 0.528758 3.52855C0.653782 3.40353 0.823352 3.33329 1.00016 3.33329H3.66683ZM5.00016 8.66663H1.66683V12.6666H12.3335V8.66663H9.00016V10.6666H5.00016V8.66663ZM12.3335 4.66663H1.66683V7.33329H5.00016V5.99996H9.00016V7.33329H12.3335V4.66663ZM6.3335 7.33329V9.33329H7.66683V7.33329H6.3335ZM5.00016 1.99996V3.33329H9.00016V1.99996H5.00016Z" fill="#00995D"/>
</svg>
